<svg width="32" height="32" viewBox="0 0 32 32" xmlns="http://www.w3.org/2000/svg">
  <defs>
    <linearGradient id="shield-gradient" x1="0%" y1="0%" x2="100%" y2="100%">
      <stop offset="0%" style="stop-color:#1e3c72;stop-opacity:1" />
      <stop offset="100%" style="stop-color:#2a5298;stop-opacity:1" />
    </linearGradient>
  </defs>
  <!-- Fondo del escudo -->
  <path d="M16 2 C10 2, 4 6, 4 6 L4 16 C4 24, 16 30, 16 30 C16 30, 28 24, 28 16 L28 6 C28 6, 22 2, 16 2 Z" 
        fill="url(#shield-gradient)" stroke="#ffffff" stroke-width="1"/>
  <!-- Símbolo de seguridad (candado) -->
  <rect x="12" y="14" width="8" height="6" rx="1" fill="#ffffff"/>
  <path d="M13 14 L13 12 C13 10.5, 14.5 9, 16 9 C17.5 9, 19 10.5, 19 12 L19 14" 
        stroke="#ffffff" stroke-width="1.5" fill="none"/>
  <!-- Punto de acceso -->
  <circle cx="16" cy="17" r="1" fill="#1e3c72"/>
</svg>
